<svg width="706" height="153" viewBox="0 0 706 153" fill="none" xmlns="http://www.w3.org/2000/svg">
<path d="M419.01 127.89C421.35 132.343 423.8 136.91 426.36 141.59C426.693 140.964 427.173 140.06 427.8 138.88C428.433 137.7 429.167 136.347 430 134.82C430.827 133.294 431.713 131.64 432.66 129.86C433.607 128.08 434.57 126.277 435.55 124.45C436.53 122.624 437.503 120.83 438.47 119.07C439.43 117.31 440.327 115.667 441.16 114.14H441.8C442.167 117.333 442.51 120.413 442.83 123.38C443.143 126.353 443.467 129.277 443.8 132.15C444.127 135.023 444.457 137.863 444.79 140.67C445.123 143.477 445.49 146.257 445.89 149.01C445.49 148.95 445.1 148.92 444.72 148.92C444.333 148.92 443.943 148.92 443.55 148.92C443.15 148.92 442.76 148.92 442.38 148.92C442 148.92 441.606 148.95 441.2 149.01C440.84 144.597 440.477 140.313 440.11 136.16C439.743 132.013 439.293 127.78 438.76 123.46H438.67C436.377 127.647 434.127 131.807 431.92 135.94C429.707 140.074 427.603 144.4 425.61 148.92H425.16C423.173 144.733 421.09 140.54 418.91 136.34C416.737 132.14 414.553 127.847 412.36 123.46H412.26C412.026 125.52 411.77 127.753 411.49 130.16C411.21 132.567 410.953 134.94 410.72 137.28C410.487 139.62 410.287 141.83 410.12 143.91C409.953 145.983 409.87 147.683 409.87 149.01C409.337 148.95 408.757 148.92 408.13 148.92C407.497 148.92 406.913 148.95 406.38 149.01C406.813 146.323 407.263 143.487 407.73 140.5C408.197 137.507 408.643 134.5 409.07 131.48C409.503 128.46 409.903 125.48 410.27 122.54C410.637 119.6 410.953 116.8 411.22 114.14H412.06C414.353 118.86 416.67 123.443 419.01 127.89Z" fill="#009842"/>
<path d="M463 121.17C462.92 119.043 462.829 116.917 462.729 114.79C464.223 114.857 465.71 114.913 467.19 114.96C468.663 115.013 470.146 115.04 471.639 115.04C473.133 115.04 474.613 115.013 476.079 114.96C477.539 114.913 479.016 114.857 480.509 114.79C480.409 115.29 480.359 115.787 480.359 116.28C480.359 116.78 480.409 117.28 480.509 117.78C479.449 117.713 478.479 117.647 477.599 117.58C476.719 117.513 475.79 117.447 474.81 117.38C473.83 117.313 472.756 117.257 471.589 117.21C470.429 117.157 469.036 117.13 467.409 117.13C467.376 118.197 467.333 119.21 467.279 120.17C467.233 121.137 467.209 122.233 467.209 123.46C467.209 124.753 467.216 126.013 467.229 127.24C467.249 128.473 467.259 129.403 467.259 130.03C468.719 130.03 470.033 130.017 471.199 129.99C472.359 129.95 473.42 129.907 474.38 129.86C475.346 129.813 476.236 129.763 477.049 129.71C477.863 129.663 478.636 129.607 479.37 129.54C479.27 130.033 479.219 130.547 479.219 131.08C479.219 131.58 479.27 132.077 479.37 132.57C478.503 132.477 477.496 132.397 476.349 132.33C475.203 132.263 474.056 132.22 472.909 132.2C471.769 132.187 470.689 132.17 469.669 132.15C468.663 132.137 467.859 132.13 467.259 132.13C467.259 132.43 467.249 132.753 467.229 133.1C467.216 133.447 467.209 133.887 467.209 134.42V136.36V139.35C467.209 141.243 467.216 142.803 467.229 144.03C467.249 145.263 467.276 146.193 467.31 146.82C468.41 146.82 469.573 146.82 470.799 146.82C472.059 146.82 473.296 146.797 474.509 146.75C475.723 146.697 476.866 146.63 477.94 146.55C479.026 146.47 479.966 146.347 480.759 146.18C480.693 146.407 480.653 146.663 480.639 146.95C480.619 147.23 480.609 147.487 480.609 147.72C480.609 148.253 480.659 148.683 480.759 149.01C479.266 148.95 477.779 148.92 476.299 148.92C474.826 148.92 473.323 148.92 471.789 148.92C470.263 148.92 468.753 148.92 467.259 148.92C465.766 148.92 464.256 148.95 462.729 149.01C462.829 146.89 462.92 144.773 463 142.66C463.08 140.553 463.12 138.403 463.12 136.21V127.64C463.12 125.453 463.08 123.297 463 121.17Z" fill="#009842"/>
<path fill-rule="evenodd" clip-rule="evenodd" d="M497.87 121.24C497.79 119.133 497.7 116.983 497.6 114.79C498.86 114.857 500.113 114.913 501.36 114.96C502.606 115.013 503.86 115.04 505.12 115.04C506.38 115.04 507.633 114.997 508.88 114.91C510.126 114.83 511.38 114.79 512.64 114.79C515.566 114.79 518.066 115.173 520.14 115.94C522.22 116.7 523.923 117.787 525.25 119.2C526.576 120.613 527.546 122.34 528.16 124.38C528.773 126.42 529.083 128.72 529.09 131.28C529.083 134.6 528.51 137.397 527.37 139.67C526.216 141.95 524.753 143.787 522.98 145.18C521.2 146.573 519.24 147.56 517.1 148.14C514.96 148.727 512.91 149.017 510.95 149.01C509.823 149.01 508.71 148.997 507.61 148.97C506.516 148.93 505.406 148.913 504.28 148.92C503.146 148.92 502.033 148.92 500.94 148.92C499.84 148.92 498.726 148.95 497.6 149.01C497.7 146.957 497.79 144.867 497.87 142.74C497.956 140.613 498 138.453 498 136.26V127.69C498 125.503 497.956 123.353 497.87 121.24ZM502.38 146.82C503.08 146.987 504.026 147.113 505.22 147.2C506.413 147.28 507.643 147.32 508.91 147.32C510.736 147.32 512.563 147.103 514.39 146.67C516.216 146.243 517.85 145.43 519.29 144.23C520.736 143.037 521.916 141.403 522.83 139.33C523.743 137.25 524.2 134.567 524.2 131.28C524.2 128.393 523.843 126.02 523.13 124.16C522.416 122.3 521.436 120.83 520.19 119.75C518.943 118.67 517.456 117.92 515.73 117.5C514.003 117.087 512.11 116.88 510.05 116.88C508.556 116.88 507.163 116.93 505.87 117.03C504.576 117.13 503.413 117.247 502.38 117.38C502.28 118.973 502.206 120.643 502.16 122.39C502.106 124.13 502.08 125.897 502.08 127.69V136.26C502.08 139.847 502.18 143.367 502.38 146.82Z" fill="#009842"/>
<path d="M546.6 121.24C546.514 119.133 546.42 116.983 546.32 114.79C546.754 114.857 547.17 114.913 547.57 114.96C547.97 115.013 548.367 115.04 548.76 115.04C549.16 115.04 549.56 115.013 549.96 114.96C550.36 114.913 550.774 114.857 551.2 114.79C551.1 116.983 551.01 119.133 550.93 121.24C550.844 123.353 550.804 125.503 550.81 127.69V136.26C550.804 138.453 550.844 140.613 550.93 142.74C551.01 144.867 551.1 146.957 551.2 149.01C550.44 148.95 549.627 148.92 548.76 148.92C547.9 148.92 547.087 148.95 546.32 149.01C546.42 146.957 546.514 144.867 546.6 142.74C546.68 140.613 546.72 138.453 546.72 136.26V127.69C546.72 125.503 546.68 123.353 546.6 121.24Z" fill="#009842"/>
<path d="M594.87 147.85C594.224 148.164 593.444 148.444 592.53 148.69C591.617 148.944 590.594 149.167 589.46 149.36C588.334 149.56 587.157 149.66 585.93 149.66C583.304 149.66 580.877 149.287 578.65 148.54C576.424 147.793 574.507 146.657 572.9 145.13C571.287 143.603 570.024 141.733 569.11 139.52C568.197 137.313 567.74 134.8 567.74 131.98C567.74 129.154 568.197 126.637 569.11 124.43C570.024 122.224 571.304 120.354 572.95 118.82C574.597 117.294 576.564 116.134 578.85 115.34C581.144 114.54 583.667 114.14 586.42 114.14C588.614 114.14 590.617 114.364 592.43 114.81C594.237 115.264 595.84 115.804 597.24 116.43C596.967 116.897 596.75 117.53 596.59 118.33C596.424 119.124 596.29 119.787 596.19 120.32L595.89 120.42C595.557 120.02 595.094 119.57 594.5 119.07C593.9 118.577 593.2 118.097 592.4 117.63C591.607 117.163 590.71 116.774 589.71 116.46C588.717 116.147 587.62 115.99 586.42 115.99C584.46 115.99 582.644 116.304 580.97 116.93C579.29 117.564 577.83 118.537 576.59 119.85C575.344 121.164 574.37 122.824 573.67 124.83C572.97 126.837 572.624 129.22 572.63 131.98C572.624 134.734 572.97 137.117 573.67 139.13C574.37 141.137 575.344 142.797 576.59 144.11C577.83 145.423 579.29 146.393 580.97 147.02C582.644 147.653 584.46 147.97 586.42 147.97C587.62 147.97 588.727 147.82 589.74 147.52C590.754 147.22 591.684 146.864 592.53 146.45C593.377 146.037 594.14 145.587 594.82 145.1C595.5 144.62 596.074 144.197 596.54 143.83L596.74 144.03L596.29 146.97C595.99 147.237 595.517 147.53 594.87 147.85Z" fill="#009842"/>
<path d="M613.6 121.24C613.513 119.133 613.423 116.983 613.33 114.79C613.757 114.857 614.17 114.913 614.57 114.96C614.97 115.013 615.37 115.04 615.77 115.04C616.17 115.04 616.567 115.013 616.96 114.96C617.36 114.913 617.777 114.857 618.21 114.79C618.11 116.983 618.017 119.133 617.93 121.24C617.85 123.353 617.81 125.503 617.81 127.69V136.26C617.81 138.453 617.85 140.613 617.93 142.74C618.017 144.867 618.11 146.957 618.21 149.01C617.443 148.95 616.63 148.92 615.77 148.92C614.903 148.92 614.09 148.95 613.33 149.01C613.423 146.957 613.513 144.867 613.6 142.74C613.687 140.613 613.73 138.453 613.73 136.26V127.69C613.73 125.503 613.687 123.353 613.6 121.24Z" fill="#009842"/>
<path d="M653.38 136.09C649.066 131.457 644.75 126.847 640.43 122.26C640.396 123.193 640.363 124.44 640.33 126C640.296 127.56 640.28 129.687 640.28 132.38C640.28 133.073 640.286 133.937 640.3 134.97C640.32 135.997 640.336 137.074 640.35 138.2C640.37 139.334 640.396 140.48 640.43 141.64C640.463 142.807 640.496 143.887 640.53 144.88C640.563 145.873 640.596 146.747 640.63 147.5C640.663 148.247 640.696 148.75 640.73 149.01C640.196 148.95 639.613 148.92 638.98 148.92C638.32 148.92 637.706 148.95 637.14 149.01C637.206 148.683 637.283 148.07 637.37 147.17C637.45 146.277 637.523 145.207 637.59 143.96C637.656 142.714 637.73 141.36 637.81 139.9C637.896 138.44 637.963 136.977 638.01 135.51C638.056 134.05 638.1 132.624 638.14 131.23C638.173 129.837 638.19 128.59 638.19 127.49C638.19 124.303 638.18 121.563 638.16 119.27C638.146 116.983 638.106 115.273 638.04 114.14H638.83C640.856 116.333 643.026 118.684 645.34 121.19C647.646 123.697 649.936 126.17 652.21 128.61C654.483 131.057 656.643 133.367 658.69 135.54C660.73 137.713 662.513 139.564 664.04 141.09V134.32C664.04 130.834 664.016 127.437 663.97 124.13C663.916 120.823 663.806 117.71 663.64 114.79C664.306 114.957 664.873 115.04 665.34 115.04C665.733 115.04 666.263 114.957 666.93 114.79C666.863 115.523 666.79 116.62 666.71 118.08C666.623 119.54 666.54 121.1 666.46 122.76C666.373 124.42 666.3 126.047 666.24 127.64C666.166 129.233 666.13 130.514 666.13 131.48C666.13 132.307 666.13 133.304 666.13 134.47C666.13 135.597 666.14 136.777 666.16 138.01C666.173 139.237 666.19 140.474 666.21 141.72C666.23 142.967 666.246 144.127 666.26 145.2C666.273 146.28 666.283 147.22 666.29 148.02C666.29 148.753 666.29 149.3 666.29 149.66H665.59C661.77 145.247 657.7 140.724 653.38 136.09Z" fill="#009842"/>
<path d="M686.139 121.17C686.053 119.043 685.959 116.917 685.859 114.79C687.353 114.857 688.839 114.913 690.319 114.96C691.799 115.013 693.286 115.04 694.779 115.04C696.273 115.04 697.749 115.013 699.209 114.96C700.676 114.913 702.156 114.857 703.649 114.79C703.549 115.29 703.499 115.787 703.499 116.28C703.499 116.78 703.549 117.28 703.649 117.78C702.583 117.713 701.609 117.647 700.729 117.58C699.849 117.513 698.919 117.447 697.939 117.38C696.959 117.313 695.889 117.257 694.729 117.21C693.569 117.157 692.176 117.13 690.549 117.13C690.509 118.197 690.466 119.21 690.419 120.17C690.373 121.137 690.349 122.233 690.349 123.46C690.349 124.753 690.356 126.013 690.369 127.24C690.383 128.473 690.389 129.403 690.389 130.03C691.856 130.03 693.169 130.017 694.329 129.99C695.489 129.95 696.553 129.907 697.519 129.86C698.479 129.813 699.366 129.763 700.179 129.71C700.999 129.663 701.773 129.607 702.499 129.54C702.399 130.033 702.349 130.547 702.349 131.08C702.349 131.58 702.399 132.077 702.499 132.57C701.639 132.477 700.636 132.397 699.489 132.33C698.343 132.263 697.196 132.22 696.049 132.2C694.903 132.187 693.823 132.17 692.809 132.15C691.796 132.137 690.989 132.13 690.389 132.13C690.389 132.43 690.383 132.753 690.369 133.1C690.356 133.447 690.349 133.887 690.349 134.42V136.36V139.35C690.349 141.243 690.356 142.803 690.369 144.03C690.389 145.263 690.413 146.193 690.439 146.82C691.539 146.82 692.703 146.82 693.929 146.82C695.189 146.82 696.429 146.797 697.649 146.75C698.856 146.697 699.999 146.63 701.079 146.55C702.159 146.47 703.099 146.347 703.899 146.18C703.833 146.407 703.789 146.663 703.769 146.95C703.756 147.23 703.749 147.487 703.749 147.72C703.749 148.253 703.799 148.683 703.899 149.01C702.399 148.95 700.913 148.92 699.439 148.92C697.959 148.92 696.456 148.92 694.929 148.92C693.403 148.92 691.889 148.92 690.389 148.92C688.896 148.92 687.386 148.95 685.859 149.01C685.959 146.89 686.053 144.773 686.139 142.66C686.219 140.553 686.259 138.403 686.259 136.21V127.64C686.259 125.453 686.219 123.297 686.139 121.17Z" fill="#009842"/>
<path d="M406.62 65.4999C406.547 63.6932 406.467 61.8533 406.38 59.98C406.753 60.0333 407.11 60.0832 407.45 60.1299C407.79 60.1699 408.13 60.1899 408.47 60.1899C408.81 60.1899 409.15 60.1699 409.49 60.1299C409.83 60.0832 410.187 60.0333 410.56 59.98C410.473 61.8533 410.393 63.6932 410.32 65.4999C410.246 67.2999 410.213 69.1366 410.22 71.0099V78.34C410.213 80.2133 410.246 82.0599 410.32 83.8799C410.393 85.6999 410.473 87.4899 410.56 89.2499C409.907 89.1899 409.21 89.1633 408.47 89.1699C407.73 89.1633 407.033 89.1899 406.38 89.2499C406.467 87.4899 406.547 85.6999 406.62 83.8799C406.687 82.0599 406.72 80.2133 406.72 78.34V71.0099C406.72 69.1366 406.687 67.2999 406.62 65.4999Z" fill="#009842"/>
<path d="M436.38 78.1899C432.687 74.2299 428.994 70.2899 425.3 66.3699C425.274 67.1632 425.247 68.2299 425.22 69.5699C425.187 70.9033 425.17 72.7199 425.17 75.0199C425.17 75.6132 425.18 76.35 425.2 77.23C425.214 78.1166 425.227 79.0399 425.24 79.9999C425.254 80.9665 425.274 81.9466 425.3 82.9399C425.327 83.9399 425.357 84.8633 425.39 85.71C425.417 86.5633 425.444 87.31 425.47 87.95C425.497 88.59 425.524 89.0232 425.55 89.2499C425.097 89.1899 424.604 89.1633 424.07 89.1699C423.497 89.1633 422.97 89.1899 422.49 89.2499C422.544 88.9632 422.607 88.4366 422.68 87.6699C422.754 86.9033 422.817 85.9866 422.87 84.9199C422.93 83.8599 422.994 82.7033 423.06 81.45C423.134 80.2033 423.19 78.9533 423.23 77.7C423.277 76.4533 423.314 75.2333 423.34 74.0399C423.367 72.8466 423.38 71.78 423.38 70.84C423.38 68.1133 423.374 65.7699 423.36 63.8099C423.347 61.8499 423.31 60.3866 423.25 59.4199H423.94C425.674 61.2999 427.527 63.31 429.5 65.45C431.474 67.5966 433.434 69.7133 435.38 71.7999C437.327 73.8866 439.174 75.8633 440.92 77.73C442.667 79.59 444.194 81.1733 445.5 82.48V76.6799C445.5 73.6999 445.477 70.7966 445.43 67.97C445.39 65.1433 445.3 62.48 445.16 59.98C445.727 60.12 446.21 60.1899 446.61 60.1899C446.95 60.1899 447.404 60.12 447.97 59.98C447.91 60.6066 447.847 61.5433 447.78 62.7899C447.707 64.0433 447.637 65.3799 447.57 66.7999C447.497 68.2199 447.43 69.61 447.37 70.97C447.317 72.3366 447.29 73.4299 447.29 74.2499C447.29 74.9632 447.29 75.8166 447.29 76.8099C447.29 77.7766 447.297 78.7833 447.31 79.83C447.324 80.8833 447.337 81.9432 447.35 83.0099C447.364 84.0766 447.377 85.0699 447.39 85.9899C447.404 86.9099 447.41 87.7132 447.41 88.3999C447.41 89.0199 447.41 89.4866 447.41 89.7999H446.82C443.554 86.0266 440.074 82.1566 436.38 78.1899Z" fill="#009842"/>
<path d="M466.04 62.2C465.3 62.1933 464.523 62.1966 463.71 62.21C462.903 62.23 462.093 62.2599 461.28 62.2999C460.473 62.3466 459.694 62.3966 458.94 62.45C458.187 62.5033 457.51 62.5732 456.91 62.6599C457.057 62.1532 457.13 61.6999 457.13 61.2999C457.13 60.9866 457.057 60.5466 456.91 59.98C458.79 60.0333 460.623 60.0832 462.41 60.1299C464.203 60.1699 466.037 60.1899 467.91 60.1899C469.783 60.1899 471.613 60.1699 473.4 60.1299C475.193 60.0832 477.027 60.0333 478.9 59.98C478.76 60.5466 478.69 61 478.69 61.34C478.69 61.7133 478.76 62.1532 478.9 62.6599C478.307 62.5732 477.634 62.5033 476.88 62.45C476.127 62.3966 475.343 62.3466 474.53 62.2999C473.723 62.2599 472.917 62.23 472.11 62.21C471.297 62.1966 470.52 62.1933 469.78 62.2C469.7 65.12 469.66 68.0566 469.66 71.0099V78.34C469.66 80.2133 469.693 82.0599 469.76 83.8799C469.833 85.6999 469.914 87.4899 470 89.2499C469.34 89.1899 468.643 89.1633 467.91 89.1699C467.17 89.1633 466.473 89.1899 465.82 89.2499C465.907 87.4899 465.984 85.6999 466.05 83.8799C466.124 82.0599 466.16 80.2133 466.16 78.34V71.0099C466.16 68.0566 466.12 65.12 466.04 62.2Z" fill="#009842"/>
<path d="M488.08 65.4299C488.006 63.6166 487.93 61.8 487.85 59.98C489.123 60.0333 490.393 60.0832 491.66 60.1299C492.926 60.1699 494.2 60.1899 495.48 60.1899C496.76 60.1899 498.023 60.1699 499.27 60.1299C500.516 60.0832 501.78 60.0333 503.06 59.98C502.973 60.4066 502.93 60.8332 502.93 61.2599C502.93 61.6866 502.973 62.1099 503.06 62.5299C502.146 62.4766 501.316 62.4199 500.57 62.3599C499.81 62.3065 499.013 62.2533 498.18 62.2C497.346 62.14 496.43 62.0899 495.43 62.0499C494.436 62.0033 493.243 61.98 491.85 61.98C491.823 62.8933 491.79 63.76 491.75 64.58C491.703 65.4066 491.68 66.3432 491.68 67.3899C491.68 68.4966 491.69 69.5765 491.71 70.6299C491.716 71.6832 491.723 72.4799 491.73 73.0199C492.976 73.0199 494.096 73.0033 495.09 72.97C496.083 72.9433 496.993 72.9099 497.82 72.8699C498.646 72.8232 499.406 72.7799 500.1 72.7399C500.793 72.6999 501.453 72.65 502.08 72.59C501.993 73.0166 501.95 73.4566 501.95 73.9099C501.95 74.3366 501.993 74.7633 502.08 75.1899C501.34 75.1033 500.48 75.0333 499.5 74.98C498.52 74.92 497.54 74.8832 496.56 74.8699C495.58 74.8565 494.656 74.8433 493.79 74.83C492.923 74.8166 492.236 74.8099 491.73 74.8099C491.723 75.0633 491.716 75.3399 491.71 75.6399C491.69 75.9332 491.68 76.3099 491.68 76.7699V78.4299V80.98C491.68 82.6 491.69 83.9365 491.71 84.9899C491.723 86.0432 491.743 86.8399 491.77 87.3799C492.703 87.3799 493.696 87.3799 494.75 87.3799C495.83 87.3799 496.89 87.3566 497.93 87.3099C498.963 87.2699 499.943 87.2132 500.87 87.1399C501.79 87.0732 502.59 86.9666 503.27 86.8199C503.216 87.0199 503.183 87.24 503.17 87.48C503.15 87.7266 503.143 87.9466 503.15 88.1399C503.15 88.5932 503.19 88.9632 503.27 89.2499C501.996 89.1899 500.726 89.1633 499.46 89.1699C498.193 89.1699 496.906 89.1699 495.6 89.1699C494.293 89.1699 493.003 89.1699 491.73 89.1699C490.45 89.1633 489.156 89.1899 487.85 89.2499C487.93 87.4299 488.006 85.6199 488.08 83.8199C488.153 82.0133 488.19 80.1733 488.19 78.2999V70.97C488.19 69.0966 488.153 67.2499 488.08 65.4299Z" fill="#009842"/>
<path d="M536.57 63.6399C535.93 63.1332 535.22 62.6866 534.44 62.2999C533.66 61.9133 532.793 61.5999 531.84 61.3599C530.886 61.1199 529.87 60.9999 528.79 60.9999C527.03 60.9999 525.39 61.2699 523.87 61.8099C522.35 62.3499 521.03 63.1799 519.91 64.2999C518.79 65.4266 517.91 66.8466 517.27 68.5599C516.63 70.2799 516.31 72.3199 516.31 74.6799C516.31 76.7533 516.593 78.6266 517.16 80.2999C517.733 81.9799 518.566 83.3933 519.66 84.5399C520.753 85.6933 522.086 86.5833 523.66 87.21C525.24 87.83 527.023 88.1399 529.01 88.1399C529.603 88.1399 530.226 88.1133 530.88 88.0599C531.533 87.9999 532.166 87.9133 532.78 87.7999C533.393 87.6866 533.96 87.5465 534.48 87.3799C535.006 87.2065 535.453 87.0066 535.82 86.7799C535.853 85.9266 535.876 85.0733 535.89 84.22C535.903 83.3666 535.91 82.4999 535.91 81.6199C535.91 80.6265 535.89 79.6332 535.85 78.6399C535.803 77.6466 535.753 76.6966 535.7 75.7899C536.406 75.9299 537.086 75.9999 537.74 75.9999C538.053 75.9999 538.366 75.9866 538.68 75.96C538.993 75.9266 539.293 75.8699 539.58 75.7899C539.52 76.4433 539.476 77.4732 539.45 78.8799C539.416 80.2799 539.4 82.1333 539.4 84.4399C539.4 85.0066 539.41 85.5799 539.43 86.1599C539.443 86.7466 539.45 87.3232 539.45 87.8899C538.85 88.1166 538.103 88.35 537.21 88.59C536.316 88.83 535.363 89.0299 534.35 89.1899C533.343 89.3433 532.336 89.4832 531.33 89.6099C530.323 89.7365 529.406 89.7999 528.58 89.7999C526.053 89.7999 523.773 89.4966 521.74 88.8899C519.713 88.2766 517.99 87.3333 516.57 86.0599C515.15 84.7799 514.056 83.1866 513.29 81.2799C512.523 79.3799 512.14 77.1799 512.14 74.6799C512.133 72.2666 512.53 70.1133 513.33 68.22C514.123 66.3333 515.246 64.7366 516.7 63.4299C518.146 62.1233 519.9 61.13 521.96 60.45C524.013 59.77 526.29 59.4266 528.79 59.4199C530.243 59.4199 531.53 59.4999 532.65 59.6599C533.776 59.8132 534.77 60.0199 535.63 60.2799C536.496 60.5332 537.256 60.8033 537.91 61.09C538.563 61.37 539.146 61.6399 539.66 61.8999C539.433 62.2932 539.226 62.8033 539.04 63.4299C538.86 64.0566 538.74 64.6399 538.68 65.1799H538.17C537.743 64.6666 537.21 64.1532 536.57 63.6399Z" fill="#009842"/>
<path fill-rule="evenodd" clip-rule="evenodd" d="M551.06 65.4999C550.987 63.6932 550.907 61.8533 550.82 59.98C551.647 60.0333 552.457 60.0832 553.25 60.1299C554.044 60.1699 554.854 60.1899 555.68 60.1899C556.5 60.1899 557.31 60.1566 558.11 60.09C558.904 60.0166 559.714 59.98 560.54 59.98C561.734 59.98 562.87 60.0933 563.95 60.3199C565.03 60.5466 565.974 60.9233 566.78 61.45C567.594 61.9766 568.234 62.6666 568.7 63.5199C569.167 64.3666 569.4 65.43 569.4 66.71C569.4 68.0766 569.094 69.25 568.48 70.23C567.874 71.21 567.13 72.0166 566.25 72.6499C565.37 73.2899 564.424 73.7899 563.41 74.1499C562.404 74.5032 561.49 74.7366 560.67 74.85C561.01 75.2766 561.477 75.8732 562.07 76.6399C562.67 77.4066 563.337 78.2499 564.07 79.1699C564.81 80.0966 565.577 81.0633 566.37 82.0699C567.17 83.0766 567.94 84.0433 568.68 84.97C569.414 85.89 570.107 86.7332 570.76 87.4999C571.414 88.2665 571.94 88.8499 572.34 89.2499C571.914 89.1899 571.487 89.1633 571.06 89.1699C570.634 89.1699 570.21 89.1699 569.79 89.1699C569.39 89.1699 568.977 89.1699 568.55 89.1699C568.124 89.1633 567.71 89.1899 567.31 89.2499C566.884 88.6565 566.24 87.7633 565.38 86.5699C564.507 85.3766 563.547 84.0966 562.5 82.73C561.447 81.37 560.374 80.0132 559.28 78.6599C558.187 77.3132 557.187 76.17 556.28 75.23H554.66V78.34C554.66 80.2133 554.697 82.0599 554.77 83.8799C554.837 85.6999 554.914 87.4899 555 89.2499C554.347 89.1899 553.65 89.1633 552.91 89.1699C552.17 89.1633 551.474 89.1899 550.82 89.2499C550.907 87.4899 550.987 85.6999 551.06 83.8799C551.127 82.0599 551.16 80.2133 551.16 78.34V71.0099C551.16 69.1366 551.127 67.2999 551.06 65.4999ZM555.96 73.6099C556.427 73.6432 556.947 73.6599 557.52 73.6599C558.394 73.6599 559.307 73.5599 560.26 73.3599C561.214 73.1599 562.087 72.8099 562.88 72.3099C563.674 71.8166 564.334 71.1499 564.86 70.3099C565.387 69.4699 565.65 68.4132 565.65 67.1399C565.65 66.0332 565.444 65.1166 565.03 64.3899C564.624 63.6632 564.09 63.0866 563.43 62.6599C562.784 62.2332 562.074 61.9433 561.3 61.7899C560.534 61.6366 559.784 61.5599 559.05 61.5599C558.057 61.5599 557.234 61.5799 556.58 61.6199C555.92 61.6599 555.364 61.7099 554.91 61.7699C554.857 63.3299 554.8 64.8766 554.74 66.4099C554.687 67.9432 554.66 69.4766 554.66 71.0099V73.4399C555.054 73.5266 555.487 73.5832 555.96 73.6099Z" fill="#009842"/>
<path fill-rule="evenodd" clip-rule="evenodd" d="M604.98 89.2499C604.58 89.1899 604.203 89.1633 603.85 89.1699C603.496 89.1699 603.12 89.1699 602.72 89.1699C602.32 89.1699 601.943 89.1699 601.59 89.1699C601.236 89.1633 600.86 89.1899 600.46 89.2499C600.26 88.5965 599.99 87.8099 599.65 86.8899C599.31 85.9632 598.933 84.9965 598.52 83.9899C598.113 82.9832 597.696 81.9599 597.27 80.9199C596.843 79.8866 596.443 78.9 596.07 77.96C595.163 77.9333 594.24 77.9099 593.3 77.8899C592.366 77.8766 591.43 77.8699 590.49 77.8699C589.61 77.8699 588.743 77.8766 587.89 77.8899C587.036 77.9099 586.17 77.9333 585.29 77.96C584.383 80.1733 583.56 82.2833 582.82 84.2899C582.08 86.2899 581.526 87.9432 581.16 89.2499C580.68 89.1899 580.153 89.1633 579.58 89.1699C579.013 89.1633 578.49 89.1899 578.01 89.2499C580.31 84.2765 582.553 79.3333 584.74 74.4199C586.926 69.5066 589.126 64.5066 591.34 59.4199H592.15C592.83 61.0733 593.57 62.8566 594.37 64.7699C595.163 66.6899 595.973 68.63 596.8 70.59C597.62 72.55 598.443 74.4933 599.27 76.4199C600.09 78.3533 600.863 80.1533 601.59 81.8199C602.316 83.4799 602.97 84.9632 603.55 86.2699C604.13 87.5766 604.606 88.5699 604.98 89.2499ZM586.1 75.9999C586.84 75.9999 587.606 76.0133 588.4 76.0399C589.2 76.0666 589.966 76.08 590.7 76.08C591.5 76.08 592.296 76.0733 593.09 76.0599C593.883 76.0466 594.68 76.0265 595.48 75.9999L590.75 65.1799L586.1 75.9999Z" fill="#009842"/>
<path d="M616.78 62.2C616.04 62.1933 615.267 62.1966 614.46 62.21C613.653 62.23 612.843 62.2599 612.03 62.2999C611.223 62.3466 610.44 62.3966 609.68 62.45C608.934 62.5033 608.26 62.5732 607.66 62.6599C607.807 62.1532 607.88 61.6999 607.88 61.2999C607.88 60.9866 607.807 60.5466 607.66 59.98C609.533 60.0333 611.367 60.0832 613.16 60.1299C614.947 60.1699 616.78 60.1899 618.66 60.1899C620.527 60.1899 622.357 60.1699 624.15 60.1299C625.937 60.0832 627.77 60.0333 629.65 59.98C629.503 60.5466 629.43 61 629.43 61.34C629.43 61.7133 629.503 62.1532 629.65 62.6599C629.05 62.5732 628.374 62.5033 627.62 62.45C626.867 62.3966 626.087 62.3466 625.28 62.2999C624.473 62.2599 623.663 62.23 622.85 62.21C622.043 62.1966 621.27 62.1933 620.53 62.2C620.443 65.12 620.4 68.0566 620.4 71.0099V78.34C620.4 80.2133 620.437 82.0599 620.51 83.8799C620.577 85.6999 620.654 87.4899 620.74 89.2499C620.087 89.1899 619.393 89.1633 618.66 89.1699C617.92 89.1633 617.223 89.1899 616.57 89.2499C616.657 87.4899 616.734 85.6999 616.8 83.8799C616.874 82.0599 616.91 80.2133 616.91 78.34V71.0099C616.91 68.0566 616.867 65.12 616.78 62.2Z" fill="#009842"/>
<path d="M638.83 65.4999C638.763 63.6932 638.686 61.8533 638.6 59.98C638.966 60.0333 639.32 60.0832 639.66 60.1299C640 60.1699 640.34 60.1899 640.68 60.1899C641.02 60.1899 641.363 60.1699 641.71 60.1299C642.05 60.0832 642.403 60.0333 642.77 59.98C642.683 61.8533 642.606 63.6932 642.54 65.4999C642.466 67.2999 642.43 69.1366 642.43 71.0099V78.34C642.43 80.2133 642.466 82.0599 642.54 83.8799C642.606 85.6999 642.683 87.4899 642.77 89.2499C642.116 89.1899 641.42 89.1633 640.68 89.1699C639.94 89.1633 639.246 89.1899 638.6 89.2499C638.686 87.4899 638.763 85.6999 638.83 83.8799C638.903 82.0599 638.94 80.2133 638.94 78.34V71.0099C638.94 69.1366 638.903 67.2999 638.83 65.4999Z" fill="#009842"/>
<path d="M661.09 83.2C660.15 80.84 659.15 78.3532 658.09 75.7399C657.023 73.1265 655.93 70.4566 654.81 67.73C653.683 65.0033 652.61 62.42 651.59 59.98C651.99 60.0333 652.373 60.0832 652.74 60.1299C653.107 60.1699 653.463 60.1899 653.81 60.1899C654.15 60.1899 654.503 60.1699 654.87 60.1299C655.243 60.0832 655.627 60.0333 656.02 59.98C656.647 61.8533 657.337 63.8199 658.09 65.8799C658.843 67.9399 659.637 70.0366 660.47 72.1699C661.31 74.2966 662.17 76.4532 663.05 78.6399C663.93 80.8266 664.827 82.9999 665.74 85.1599C666.247 83.9932 666.8 82.6932 667.4 81.2599C667.993 79.8266 668.597 78.3366 669.21 76.7899C669.823 75.2433 670.427 73.6666 671.02 72.0599C671.613 70.4533 672.187 68.9133 672.74 67.4399C673.3 65.9599 673.806 64.5799 674.26 63.2999C674.713 62.0199 675.097 60.9133 675.41 59.98C676.03 60.12 676.557 60.1899 676.99 60.1899C677.417 60.1899 677.94 60.12 678.56 59.98C676.347 64.92 674.217 69.8199 672.17 74.6799C670.123 79.5333 668.163 84.3899 666.29 89.2499C665.837 89.1899 665.367 89.1633 664.88 89.1699C664.313 89.1633 663.847 89.1899 663.48 89.2499C662.827 87.5765 662.03 85.56 661.09 83.2Z" fill="#009842"/>
<path d="M687.62 65.4299C687.547 63.6166 687.467 61.8 687.38 59.98C688.66 60.0333 689.93 60.0832 691.19 60.1299C692.457 60.1699 693.73 60.1899 695.01 60.1899C696.29 60.1899 697.553 60.1699 698.8 60.1299C700.047 60.0832 701.31 60.0333 702.59 59.98C702.503 60.4066 702.46 60.8332 702.46 61.2599C702.46 61.6866 702.503 62.1099 702.59 62.5299C701.683 62.4766 700.853 62.4199 700.1 62.3599C699.347 62.3065 698.55 62.2533 697.71 62.2C696.877 62.14 695.963 62.0899 694.97 62.0499C693.97 62.0033 692.776 61.98 691.39 61.98C691.356 62.8933 691.32 63.76 691.28 64.58C691.24 65.4066 691.217 66.3432 691.21 67.3899C691.21 68.4966 691.22 69.5765 691.24 70.6299C691.253 71.6832 691.26 72.4799 691.26 73.0199C692.506 73.0199 693.63 73.0033 694.63 72.97C695.617 72.9433 696.523 72.9099 697.35 72.8699C698.177 72.8232 698.937 72.7799 699.63 72.7399C700.323 72.6999 700.983 72.65 701.61 72.59C701.523 73.0166 701.48 73.4566 701.48 73.9099C701.48 74.3366 701.523 74.7633 701.61 75.1899C700.87 75.1033 700.013 75.0333 699.04 74.98C698.053 74.92 697.073 74.8832 696.1 74.8699C695.113 74.8565 694.186 74.8433 693.32 74.83C692.453 74.8166 691.766 74.8099 691.26 74.8099C691.26 75.0633 691.253 75.3399 691.24 75.6399C691.22 75.9332 691.21 76.3099 691.21 76.7699V78.4299V80.98C691.21 82.6 691.22 83.9365 691.24 84.9899C691.253 86.0432 691.273 86.8399 691.3 87.3799C692.24 87.3799 693.233 87.3799 694.28 87.3799C695.36 87.3799 696.42 87.3566 697.46 87.3099C698.493 87.2699 699.473 87.2132 700.4 87.1399C701.32 87.0732 702.123 86.9666 702.81 86.8199C702.75 87.0199 702.713 87.24 702.7 87.48C702.686 87.7266 702.68 87.9466 702.68 88.1399C702.68 88.5932 702.723 88.9632 702.81 89.2499C701.53 89.1899 700.257 89.1633 698.99 89.1699C697.723 89.1699 696.44 89.1699 695.14 89.1699C693.833 89.1699 692.54 89.1699 691.26 89.1699C689.98 89.1633 688.687 89.1899 687.38 89.2499C687.467 87.4299 687.547 85.6199 687.62 83.8199C687.687 82.0133 687.72 80.1733 687.72 78.2999V70.97C687.72 69.0966 687.687 67.2499 687.62 65.4299Z" fill="#009842"/>
<path d="M430.78 33.4502C430.2 33.7369 429.497 33.9935 428.67 34.2202C427.85 34.4402 426.933 34.6402 425.92 34.8202C424.9 35.0002 423.84 35.0902 422.74 35.0902C420.373 35.0902 418.193 34.7535 416.2 34.0802C414.193 33.4069 412.467 32.3835 411.02 31.0101C409.573 29.6368 408.437 27.9569 407.61 25.9702C406.79 23.9835 406.38 21.7202 406.38 19.1802C406.38 16.6402 406.79 14.3768 407.61 12.3901C408.437 10.4035 409.587 8.72355 411.06 7.35022C412.54 5.97689 414.31 4.93355 416.37 4.22021C418.43 3.50021 420.703 3.14014 423.19 3.14014C425.157 3.14014 426.953 3.34011 428.58 3.74011C430.213 4.14678 431.657 4.63353 432.91 5.2002C432.67 5.6202 432.477 6.18681 432.33 6.90015C432.177 7.62015 432.057 8.2202 431.97 8.7002L431.7 8.79016C431.4 8.43016 430.98 8.02687 430.44 7.5802C429.907 7.12687 429.28 6.69348 428.56 6.28015C427.847 5.86015 427.04 5.50688 426.14 5.22021C425.246 4.94021 424.263 4.80017 423.19 4.80017C421.423 4.80017 419.787 5.08348 418.28 5.65015C416.767 6.21681 415.453 7.09014 414.34 8.27014C413.22 9.45014 412.343 10.9435 411.71 12.7501C411.083 14.5568 410.77 16.7002 410.77 19.1802C410.77 21.6602 411.083 23.8034 411.71 25.6101C412.343 27.4168 413.22 28.9102 414.34 30.0902C415.453 31.2702 416.767 32.1435 418.28 32.7102C419.787 33.2769 421.423 33.5602 423.19 33.5602C424.263 33.5602 425.253 33.4268 426.16 33.1602C427.073 32.8935 427.91 32.5735 428.67 32.2002C429.437 31.8269 430.123 31.4234 430.73 30.9901C431.343 30.5568 431.86 30.1769 432.28 29.8502L432.46 30.0302L432.06 32.6702C431.787 32.9102 431.36 33.1702 430.78 33.4502Z" fill="#009842"/>
<path d="M443.149 9.46021C443.069 7.54687 442.986 5.63355 442.899 3.72021C444.246 3.78021 445.583 3.83346 446.909 3.88013C448.243 3.92679 449.579 3.9502 450.919 3.9502C452.266 3.9502 453.596 3.92679 454.909 3.88013C456.223 3.83346 457.553 3.78021 458.899 3.72021C458.806 4.16688 458.759 4.61686 458.759 5.07019C458.759 5.51686 458.806 5.96349 458.899 6.41016C457.939 6.35016 457.066 6.29022 456.279 6.23022C455.486 6.17022 454.649 6.11017 453.769 6.05017C452.883 5.99017 451.919 5.9368 450.879 5.89014C449.833 5.85014 448.576 5.8302 447.109 5.8302C447.083 6.78353 447.046 7.69351 446.999 8.56018C446.953 9.42685 446.929 10.4135 446.929 11.5201C446.929 12.6868 446.936 13.8202 446.949 14.9202C446.969 16.0268 446.979 16.8635 446.979 17.4302C448.293 17.4302 449.473 17.4168 450.519 17.3901C451.566 17.3568 452.519 17.3202 453.379 17.2802C454.246 17.2335 455.046 17.1868 455.779 17.1401C456.513 17.1001 457.209 17.0501 457.869 16.9901C457.776 17.4368 457.729 17.9001 457.729 18.3801C457.729 18.8268 457.776 19.2735 457.869 19.7202C457.089 19.6269 456.183 19.5501 455.149 19.4901C454.123 19.4368 453.093 19.4001 452.059 19.3801C451.033 19.3668 450.063 19.3535 449.149 19.3402C448.243 19.3269 447.519 19.3202 446.979 19.3202C446.979 19.5869 446.969 19.8769 446.949 20.1902C446.936 20.5035 446.929 20.9001 446.929 21.3801V23.1201V25.8102C446.929 27.5168 446.936 28.9235 446.949 30.0302C446.969 31.1302 446.993 31.9635 447.019 32.5302C448.006 32.5302 449.053 32.5302 450.159 32.5302C451.293 32.5302 452.406 32.5102 453.499 32.4702C454.586 32.4235 455.616 32.3635 456.589 32.2902C457.556 32.2168 458.399 32.1035 459.119 31.9502C459.059 32.1635 459.023 32.3968 459.009 32.6501C458.996 32.9035 458.989 33.1335 458.989 33.3402C458.989 33.8202 459.033 34.2101 459.119 34.5101C457.779 34.4501 456.443 34.4202 455.109 34.4202C453.783 34.4202 452.433 34.4202 451.059 34.4202C449.679 34.4202 448.319 34.4202 446.979 34.4202C445.633 34.4202 444.273 34.4501 442.899 34.5101C442.986 32.5968 443.069 30.6902 443.149 28.7902C443.223 26.8968 443.259 24.9634 443.259 22.9901V15.2802C443.259 13.3068 443.223 11.3669 443.149 9.46021Z" fill="#009842"/>
<path d="M484.39 22.8801C480.51 18.7135 476.627 14.5669 472.74 10.4402C472.714 11.2802 472.684 12.4002 472.65 13.8002C472.624 15.2068 472.61 17.1202 472.61 19.5402C472.61 20.1668 472.617 20.9435 472.63 21.8701C472.644 22.7968 472.66 23.7668 472.68 24.7802C472.694 25.8002 472.714 26.8301 472.74 27.8701C472.774 28.9168 472.804 29.8902 472.83 30.7902C472.857 31.6835 472.887 32.4668 472.92 33.1401C472.947 33.8135 472.977 34.2701 473.01 34.5101C472.53 34.4501 472.007 34.4202 471.44 34.4202C470.847 34.4202 470.294 34.4501 469.78 34.5101C469.847 34.2101 469.917 33.6569 469.99 32.8502C470.064 32.0436 470.13 31.0802 470.19 29.9602C470.25 28.8402 470.317 27.6235 470.39 26.3102C470.464 24.9968 470.524 23.6801 470.57 22.3601C470.617 21.0468 470.654 19.7635 470.68 18.5101C470.714 17.2568 470.73 16.1368 470.73 15.1501C470.73 12.2835 470.72 9.81679 470.7 7.75012C470.687 5.69012 470.65 4.15347 470.59 3.14014H471.31C473.13 5.11347 475.08 7.22689 477.16 9.48022C479.234 11.7336 481.294 13.9602 483.34 16.1602C485.387 18.3535 487.33 20.4301 489.17 22.3901C491.004 24.3435 492.607 26.0068 493.98 27.3801V21.2902C493.98 18.1502 493.96 15.0935 493.92 12.1201C493.874 9.15345 493.774 6.35355 493.62 3.72021C494.22 3.87355 494.73 3.9502 495.15 3.9502C495.504 3.9502 495.98 3.87355 496.58 3.72021C496.52 4.38021 496.454 5.36684 496.38 6.68018C496.307 7.99351 496.234 9.3968 496.16 10.8901C496.08 12.3835 496.01 13.8468 495.95 15.2802C495.89 16.7135 495.86 17.8636 495.86 18.7302C495.86 19.4769 495.86 20.3735 495.86 21.4202C495.86 22.4402 495.87 23.5002 495.89 24.6002C495.904 25.7069 495.917 26.8202 495.93 27.9402C495.944 29.0602 495.96 30.1069 495.98 31.0802C495.994 32.0535 496 32.8968 496 33.6101C496 34.2701 496 34.7635 496 35.0902H495.37C491.937 31.1169 488.277 27.0468 484.39 22.8801Z" fill="#009842"/>
<path d="M515.58 6.05017C514.807 6.05017 513.994 6.05686 513.14 6.07019C512.287 6.09019 511.434 6.12016 510.58 6.16016C509.734 6.20682 508.914 6.26019 508.12 6.32019C507.327 6.38019 506.617 6.45684 505.99 6.55017C506.137 6.01017 506.214 5.53011 506.22 5.11011C506.214 4.78344 506.137 4.32021 505.99 3.72021C507.964 3.78021 509.89 3.83346 511.77 3.88013C513.657 3.92679 515.584 3.9502 517.55 3.9502C519.524 3.9502 521.45 3.92679 523.33 3.88013C525.217 3.83346 527.144 3.78021 529.11 3.72021C528.964 4.32021 528.89 4.80016 528.89 5.16016C528.89 5.54682 528.964 6.01017 529.11 6.55017C528.484 6.45684 527.774 6.38019 526.98 6.32019C526.194 6.26019 525.374 6.20682 524.52 6.16016C523.674 6.12016 522.824 6.09019 521.97 6.07019C521.117 6.05686 520.3 6.05017 519.52 6.05017C519.434 9.13017 519.39 12.2235 519.39 15.3302V23.0302C519.39 25.0035 519.427 26.9468 519.5 28.8601C519.574 30.7734 519.657 32.6568 519.75 34.5101C519.064 34.4501 518.33 34.4202 517.55 34.4202C516.777 34.4202 516.047 34.4501 515.36 34.5101C515.447 32.6568 515.527 30.7734 515.6 28.8601C515.674 26.9468 515.71 25.0035 515.71 23.0302V15.3302C515.717 12.2235 515.674 9.13017 515.58 6.05017Z" fill="#009842"/>
<path d="M538.77 9.46021C538.69 7.54687 538.606 5.63355 538.52 3.72021C539.866 3.78021 541.203 3.83346 542.53 3.88013C543.863 3.92679 545.203 3.9502 546.55 3.9502C547.89 3.9502 549.216 3.92679 550.53 3.88013C551.843 3.83346 553.173 3.78021 554.52 3.72021C554.433 4.16688 554.39 4.61686 554.39 5.07019C554.39 5.51686 554.433 5.96349 554.52 6.41016C553.566 6.35016 552.693 6.29022 551.9 6.23022C551.106 6.17022 550.27 6.11017 549.39 6.05017C548.51 5.99017 547.546 5.9368 546.5 5.89014C545.453 5.85014 544.2 5.8302 542.74 5.8302C542.706 6.78353 542.666 7.69351 542.62 8.56018C542.573 9.42685 542.553 10.4135 542.56 11.5201C542.56 12.6868 542.566 13.8202 542.58 14.9202C542.593 16.0268 542.6 16.8635 542.6 17.4302C543.913 17.4302 545.093 17.4168 546.14 17.3901C547.186 17.3568 548.143 17.3202 549.01 17.2802C549.876 17.2335 550.673 17.1868 551.4 17.1401C552.133 17.1001 552.83 17.0501 553.49 16.9901C553.396 17.4368 553.35 17.9001 553.35 18.3801C553.35 18.8268 553.396 19.2735 553.49 19.7202C552.71 19.6269 551.806 19.5501 550.78 19.4901C549.746 19.4368 548.716 19.4001 547.69 19.3801C546.656 19.3668 545.683 19.3535 544.77 19.3402C543.863 19.3269 543.14 19.3202 542.6 19.3202C542.6 19.5869 542.593 19.8769 542.58 20.1902C542.566 20.5035 542.56 20.9001 542.56 21.3801V23.1201V25.8102C542.56 27.5168 542.566 28.9235 542.58 30.0302C542.593 31.1302 542.616 31.9635 542.65 32.5302C543.636 32.5302 544.68 32.5302 545.78 32.5302C546.913 32.5302 548.026 32.5102 549.12 32.4702C550.206 32.4235 551.236 32.3635 552.21 32.2902C553.183 32.2168 554.026 32.1035 554.74 31.9502C554.68 32.1635 554.643 32.3968 554.63 32.6501C554.616 32.9035 554.61 33.1335 554.61 33.3402C554.61 33.8202 554.653 34.2101 554.74 34.5101C553.4 34.4501 552.063 34.4202 550.73 34.4202C549.403 34.4202 548.053 34.4202 546.68 34.4202C545.306 34.4202 543.946 34.4202 542.6 34.4202C541.253 34.4202 539.893 34.4501 538.52 34.5101C538.606 32.5968 538.69 30.6902 538.77 28.7902C538.843 26.8968 538.88 24.9634 538.88 22.9901V15.2802C538.88 13.3068 538.843 11.3669 538.77 9.46021Z" fill="#009842"/>
<path fill-rule="evenodd" clip-rule="evenodd" d="M565.65 9.52014C565.577 7.62681 565.497 5.69355 565.41 3.72021C566.277 3.78021 567.127 3.83346 567.96 3.88013C568.793 3.92679 569.647 3.9502 570.52 3.9502C571.38 3.9502 572.23 3.9102 573.07 3.8302C573.903 3.75687 574.754 3.72021 575.62 3.72021C576.88 3.72021 578.077 3.8402 579.21 4.0802C580.343 4.3202 581.337 4.71681 582.19 5.27014C583.037 5.82347 583.71 6.54685 584.21 7.44019C584.697 8.34019 584.94 9.46017 584.94 10.8002C584.94 12.2335 584.62 13.4668 583.98 14.5001C583.34 15.5268 582.557 16.3768 581.63 17.0502C580.704 17.7235 579.71 18.2468 578.65 18.6201C577.59 18.9935 576.627 19.2401 575.76 19.3601C576.12 19.8068 576.614 20.4334 577.24 21.2401C577.867 22.0468 578.567 22.9368 579.34 23.9102C580.12 24.8768 580.927 25.8935 581.76 26.9602C582.6 28.0202 583.407 29.0335 584.18 30.0001C584.96 30.9735 585.694 31.8635 586.38 32.6702C587.067 33.4768 587.62 34.0901 588.04 34.5101C587.587 34.4501 587.137 34.4202 586.69 34.4202C586.244 34.4202 585.797 34.4202 585.35 34.4202C584.93 34.4202 584.497 34.4202 584.05 34.4202C583.604 34.4202 583.17 34.4501 582.75 34.5101C582.304 33.8835 581.623 32.9402 580.71 31.6802C579.797 30.4268 578.79 29.0835 577.69 27.6501C576.584 26.2168 575.454 24.7901 574.3 23.3701C573.154 21.9501 572.1 20.7468 571.14 19.7601H569.44V23.0302C569.44 25.0035 569.477 26.9468 569.55 28.8601C569.624 30.7734 569.707 32.6568 569.8 34.5101C569.114 34.4501 568.38 34.4202 567.6 34.4202C566.827 34.4202 566.097 34.4501 565.41 34.5101C565.497 32.6568 565.577 30.7734 565.65 28.8601C565.73 26.9468 565.77 25.0035 565.77 23.0302V15.3302C565.77 13.3569 565.73 11.4201 565.65 9.52014ZM570.81 18.0602C571.304 18.0935 571.847 18.1101 572.44 18.1101C573.367 18.1101 574.33 18.0035 575.33 17.7902C576.33 17.5835 577.25 17.2169 578.09 16.6902C578.923 16.1702 579.617 15.4702 580.17 14.5902C580.723 13.7102 581 12.5968 581 11.2501C581 10.0835 580.783 9.12011 580.35 8.36011C579.917 7.60011 579.357 6.99684 578.67 6.55017C577.983 6.09684 577.237 5.79013 576.43 5.63013C575.624 5.46346 574.834 5.38013 574.06 5.38013C573.007 5.38013 572.14 5.40353 571.46 5.4502C570.767 5.4902 570.183 5.54022 569.71 5.60022C569.65 7.24689 569.59 8.87678 569.53 10.4901C569.47 12.1034 569.44 13.7169 569.44 15.3302V17.8801C569.86 17.9735 570.317 18.0335 570.81 18.0602Z" fill="#009842"/>
<path d="M614.45 9.52014C614.377 7.62681 614.297 5.69355 614.21 3.72021C615.55 3.78021 616.883 3.83346 618.21 3.88013C619.543 3.92679 620.883 3.9502 622.23 3.9502C623.57 3.9502 624.927 3.92679 626.3 3.88013C627.673 3.83346 629.167 3.78021 630.78 3.72021C630.693 4.16688 630.65 4.61686 630.65 5.07019C630.65 5.51686 630.693 5.96349 630.78 6.41016C629.973 6.32349 629.003 6.24016 627.87 6.16016C626.737 6.08682 625.58 6.02689 624.4 5.98022C623.22 5.94022 622.083 5.90345 620.99 5.87012C619.903 5.84345 619 5.8302 618.28 5.8302C618.253 6.87687 618.23 7.87687 618.21 8.8302C618.197 9.78353 618.19 10.7402 618.19 11.7002C618.19 12.7469 618.197 13.7102 618.21 14.5902C618.23 15.4702 618.24 16.3869 618.24 17.3402C620.213 17.3402 622.163 17.3101 624.09 17.2501C626.01 17.1901 627.913 17.0735 629.8 16.9001C629.68 17.3468 629.62 17.7934 629.62 18.2401C629.62 18.6868 629.68 19.1335 629.8 19.5802C629.053 19.4935 628.21 19.4268 627.27 19.3801C626.323 19.3401 625.343 19.3035 624.33 19.2701C623.317 19.2435 622.287 19.2302 621.24 19.2302C620.193 19.2302 619.193 19.2302 618.24 19.2302V23.0302C618.24 25.0035 618.277 26.9468 618.35 28.8601C618.423 30.7734 618.507 32.6568 618.6 34.5101C617.913 34.4501 617.18 34.4202 616.4 34.4202C615.62 34.4202 614.89 34.4501 614.21 34.5101C614.297 32.6568 614.377 30.7734 614.45 28.8601C614.523 26.9468 614.56 25.0035 614.56 23.0302V15.3302C614.56 13.3569 614.523 11.4201 614.45 9.52014Z" fill="#009842"/>
<path fill-rule="evenodd" clip-rule="evenodd" d="M640.169 12.3901C640.989 10.4035 642.139 8.72355 643.619 7.35022C645.099 5.97689 646.869 4.93355 648.929 4.22021C650.989 3.50021 653.246 3.14014 655.699 3.14014C658.179 3.14014 660.449 3.50021 662.509 4.22021C664.569 4.93355 666.339 5.97689 667.819 7.35022C669.293 8.72355 670.443 10.4035 671.269 12.3901C672.089 14.3768 672.499 16.6402 672.499 19.1802C672.499 21.7202 672.089 23.9835 671.269 25.9702C670.443 27.9569 669.293 29.6368 667.819 31.0101C666.339 32.3835 664.569 33.4069 662.509 34.0802C660.449 34.7535 658.179 35.0902 655.699 35.0902C653.246 35.0902 650.989 34.7535 648.929 34.0802C646.869 33.4069 645.099 32.3835 643.619 31.0101C642.139 29.6368 640.989 27.9569 640.169 25.9702C639.349 23.9835 638.939 21.7202 638.939 19.1802C638.939 16.6402 639.349 14.3768 640.169 12.3901ZM667.169 12.7501C666.543 10.9435 665.669 9.45014 664.549 8.27014C663.429 7.09014 662.113 6.21681 660.599 5.65015C659.093 5.08348 657.459 4.80017 655.699 4.80017C653.966 4.80017 652.343 5.08348 650.829 5.65015C649.323 6.21681 648.009 7.09014 646.889 8.27014C645.769 9.45014 644.896 10.9435 644.269 12.7501C643.643 14.5568 643.329 16.7002 643.329 19.1802C643.329 21.6602 643.643 23.8034 644.269 25.6101C644.896 27.4168 645.769 28.9102 646.889 30.0902C648.009 31.2702 649.323 32.1435 650.829 32.7102C652.343 33.2769 653.966 33.5602 655.699 33.5602C657.459 33.5602 659.093 33.2769 660.599 32.7102C662.113 32.1435 663.429 31.2702 664.549 30.0902C665.669 28.9102 666.543 27.4168 667.169 25.6101C667.796 23.8034 668.109 21.6602 668.109 19.1802C668.109 16.7002 667.796 14.5568 667.169 12.7501Z" fill="#009842"/>
<path fill-rule="evenodd" clip-rule="evenodd" d="M683.139 9.52014C683.066 7.62681 682.986 5.69355 682.899 3.72021C683.766 3.78021 684.616 3.83346 685.449 3.88013C686.289 3.92679 687.139 3.9502 687.999 3.9502C688.866 3.9502 689.719 3.9102 690.559 3.8302C691.393 3.75687 692.243 3.72021 693.109 3.72021C694.369 3.72021 695.566 3.8402 696.699 4.0802C697.833 4.3202 698.826 4.71681 699.679 5.27014C700.526 5.82347 701.196 6.54685 701.689 7.44019C702.183 8.34019 702.429 9.46017 702.429 10.8002C702.429 12.2335 702.109 13.4668 701.469 14.5001C700.829 15.5268 700.046 16.3768 699.119 17.0502C698.193 17.7235 697.199 18.2468 696.139 18.6201C695.079 18.9935 694.116 19.2401 693.249 19.3601C693.603 19.8068 694.096 20.4334 694.729 21.2401C695.356 22.0468 696.056 22.9368 696.829 23.9102C697.603 24.8768 698.409 25.8935 699.249 26.9602C700.083 28.0202 700.889 29.0335 701.669 30.0001C702.449 30.9735 703.183 31.8635 703.869 32.6702C704.556 33.4768 705.109 34.0901 705.529 34.5101C705.076 34.4501 704.626 34.4202 704.179 34.4202C703.733 34.4202 703.286 34.4202 702.839 34.4202C702.419 34.4202 701.986 34.4202 701.539 34.4202C701.086 34.4202 700.653 34.4501 700.239 34.5101C699.786 33.8835 699.106 32.9402 698.199 31.6802C697.286 30.4268 696.276 29.0835 695.169 27.6501C694.069 26.2168 692.943 24.7901 691.789 23.3701C690.636 21.9501 689.583 20.7468 688.629 19.7601H686.929V23.0302C686.929 25.0035 686.966 26.9468 687.039 28.8601C687.113 30.7734 687.196 32.6568 687.289 34.5101C686.603 34.4501 685.869 34.4202 685.089 34.4202C684.316 34.4202 683.586 34.4501 682.899 34.5101C682.986 32.6568 683.066 30.7734 683.139 28.8601C683.213 26.9468 683.249 25.0035 683.249 23.0302V15.3302C683.249 13.3569 683.213 11.4201 683.139 9.52014ZM688.299 18.0602C688.786 18.0935 689.329 18.1101 689.929 18.1101C690.856 18.1101 691.819 18.0035 692.819 17.7902C693.819 17.5835 694.739 17.2169 695.579 16.6902C696.413 16.1702 697.106 15.4702 697.659 14.5902C698.213 13.7102 698.489 12.5968 698.489 11.2501C698.489 10.0835 698.273 9.12011 697.839 8.36011C697.406 7.60011 696.846 6.99684 696.159 6.55017C695.473 6.09684 694.726 5.79013 693.919 5.63013C693.113 5.46346 692.319 5.38013 691.539 5.38013C690.499 5.38013 689.636 5.40353 688.949 5.4502C688.256 5.4902 687.673 5.54022 687.199 5.60022C687.139 7.24689 687.079 8.87678 687.019 10.4901C686.959 12.1034 686.929 13.7169 686.929 15.3302V17.8801C687.349 17.9735 687.806 18.0335 688.299 18.0602Z" fill="#009842"/>
<path d="M386.29 151.77H382.29V0.680176H386.29V151.77Z" fill="#009842"/>
<path d="M195.07 132.77C192.717 125.077 190.043 116.384 187.05 106.69C184.057 96.997 180.92 86.8403 177.64 76.2203C174.367 65.607 171.233 55.4869 168.24 45.8602C165.247 36.2402 162.503 27.5836 160.01 19.8903C157.51 12.1903 155.55 6.48694 154.13 2.78027C155.977 3.06694 157.757 3.31694 159.47 3.53027C161.183 3.74361 162.967 3.85034 164.82 3.85034C166.667 3.85034 168.447 3.74361 170.16 3.53027C171.873 3.31694 173.657 3.06694 175.51 2.78027C178.217 13.6136 180.853 23.7702 183.42 33.2502C185.98 42.7302 188.723 52.3502 191.65 62.1102C194.57 71.8769 197.703 82.1403 201.05 92.9003C204.403 103.66 208.217 115.81 212.49 129.35H212.92C214.2 125.504 215.983 120.194 218.27 113.42C220.543 106.654 223.037 99.1737 225.75 90.9803C228.457 82.7803 231.307 74.2603 234.3 65.4203C237.293 56.587 240.073 48.1437 242.64 40.0903C245.207 32.037 247.487 24.697 249.48 18.0703C251.473 11.4436 252.9 6.34694 253.76 2.78027C256.607 3.49361 258.957 3.85034 260.81 3.85034C262.663 3.85034 265.017 3.49361 267.87 2.78027C268.863 6.63361 270.393 11.907 272.46 18.6003C274.527 25.307 276.843 32.757 279.41 40.9503C281.977 49.1437 284.72 57.6602 287.64 66.5002C290.56 75.3336 293.377 83.8136 296.09 91.9403C298.797 100.06 301.253 107.4 303.46 113.96C305.673 120.52 307.42 125.65 308.7 129.35H309.13C310.123 126.217 311.657 121.337 313.73 114.71C315.79 108.084 318.14 100.6 320.78 92.2603C323.42 83.9203 326.13 75.1537 328.91 65.9603C331.683 56.767 334.32 48.0003 336.82 39.6603C339.313 31.3269 341.52 23.8803 343.44 17.3203C345.367 10.767 346.687 5.92027 347.4 2.78027C348.68 3.06694 349.927 3.31694 351.14 3.53027C352.353 3.74361 353.6 3.85034 354.88 3.85034C356.167 3.85034 357.413 3.74361 358.62 3.53027C359.833 3.31694 361.083 3.06694 362.37 2.78027C360.937 6.06027 358.867 11.4769 356.16 19.0303C353.453 26.5903 350.427 35.2136 347.08 44.9003C343.727 54.5936 340.233 64.857 336.6 75.6903C332.967 86.5236 329.477 96.8203 326.13 106.58C322.777 116.347 319.783 125.114 317.15 132.88C314.51 140.647 312.55 146.24 311.27 149.66C308.99 149.374 306.567 149.23 304 149.23C301.433 149.23 299.01 149.374 296.73 149.66C290.317 129.854 283.973 109.937 277.7 89.9103C271.427 69.8836 264.657 49.1803 257.39 27.8003H256.96C255.82 31.0803 254.29 35.4637 252.37 40.9503C250.443 46.437 248.303 52.6003 245.95 59.4403C243.597 66.2803 241.067 73.6203 238.36 81.4603C235.653 89.3003 232.947 97.2103 230.24 105.19C227.533 113.177 224.897 121.017 222.33 128.71C219.763 136.404 217.41 143.387 215.27 149.66C212.99 149.374 210.497 149.23 207.79 149.23C205.077 149.23 202.583 149.374 200.31 149.66C199.163 146.1 197.417 140.47 195.07 132.77Z" fill="#8BC540"/>
<path d="M137.68 82.1002C135.71 77.9302 130.24 70.9301 122.53 67.2601C118.08 65.1401 110.4 63.0002 102.38 61.5602C94.7597 60.2002 82.9597 58.8502 81.8097 58.7102C81.803 58.7102 81.7964 58.7102 81.7897 58.7102H81.7997C81.7797 58.7035 81.7697 58.7002 81.7697 58.7002L81.7797 58.7102C81.733 58.7035 81.7097 58.7002 81.7097 58.7002L81.7397 58.7202C81.7197 58.7135 81.7097 58.7102 81.7097 58.7102L81.7897 58.7601L81.7597 58.7501C81.7597 58.7501 81.7697 58.7535 81.7897 58.7601H81.7597C81.7597 58.7601 81.7664 58.7668 81.7797 58.7802L81.6797 58.7501C81.6797 58.7501 81.693 58.7568 81.7197 58.7701L81.6997 58.7601C81.6997 58.7601 81.743 58.7802 81.8297 58.8202C82.7297 59.5302 92.0397 66.9202 98.3997 71.3502C105.08 76.0102 112.02 79.9302 116.67 81.5702C122.55 83.6802 134.03 83.5202 137.68 82.1002Z" fill="#0E9447"/>
<path d="M122.61 21.17C119.403 18.6034 115.84 16.3601 111.92 14.4401C108 12.5134 103.653 10.9434 98.88 9.7301C94.1 8.52344 89.0033 7.9167 83.59 7.91003C74.75 7.9167 66.52 9.27344 58.9 11.9801C51.2733 14.6868 44.6434 18.8534 39.01 24.4801C33.3834 30.1134 28.9667 37.24 25.76 45.86C22.5534 54.4867 20.95 64.7134 20.95 76.54C20.95 86.9467 22.3734 96.3533 25.22 104.76C28.0734 113.173 32.2434 120.267 37.73 126.04C43.2167 131.813 49.9167 136.267 57.83 139.4C65.7367 142.533 74.68 144.1 84.66 144.1C87.6534 144.107 90.79 143.963 94.07 143.67C97.3434 143.39 100.513 142.963 103.58 142.39C106.64 141.823 109.49 141.113 112.13 140.26C114.77 139.4 117.017 138.4 118.87 137.26C119.01 132.987 119.117 128.71 119.19 124.43C119.257 120.157 119.29 115.81 119.29 111.39C119.29 106.403 119.183 101.417 118.97 96.4301C118.757 91.4434 118.507 86.6668 118.22 82.1001C121.787 82.8134 125.21 83.17 128.49 83.17C130.057 83.17 131.623 83.1001 133.19 82.9601C134.757 82.8134 136.253 82.5268 137.68 82.1001C137.393 85.3801 137.18 90.5468 137.04 97.6001C136.893 104.66 136.82 113.96 136.82 125.5C136.82 128.353 136.857 131.24 136.93 134.16C137.003 137.087 137.04 139.973 137.04 142.82C134.047 143.96 130.303 145.137 125.81 146.35C121.323 147.563 116.55 148.56 111.49 149.34C106.43 150.127 101.37 150.84 96.31 151.48C91.25 152.12 86.6534 152.44 82.52 152.44C69.8334 152.44 58.3967 150.907 48.21 147.84C38.0167 144.78 29.3567 140.043 22.23 133.63C15.1034 127.217 9.61669 119.233 5.77002 109.68C1.92335 100.133 1.66666e-05 89.0867 1.66666e-05 76.54C-0.00665 64.4334 1.98669 53.6367 5.98003 44.15C9.97336 34.6767 15.6034 26.6601 22.87 20.1001C30.1367 13.5468 38.94 8.56001 49.28 5.14001C59.6067 1.72001 71.0433 0.00666667 83.59 0C90.8567 0.00666667 97.3067 0.400054 102.94 1.18005C108.567 1.96672 113.553 3.00003 117.9 4.28003C122.247 5.5667 126.06 6.92009 129.34 8.34009C132.62 9.76675 135.543 11.12 138.11 12.4C136.97 14.4 135.937 16.9668 135.01 20.1001C134.083 23.2401 133.477 26.1633 133.19 28.87H130.63C128.49 26.3033 125.817 23.7367 122.61 21.17Z" fill="#8BC540"/>
</svg>
